<!DOCTYPE svg PUBLIC "-//W3C//DTD SVG 1.0//EN" "http://www.w3.org/TR/2001/REC-SVG-20010904/DTD/svg10.dtd">
<svg xmlns="http://www.w3.org/2000/svg" width="15" height="15" version="1">
<circle cx="8" cy="5.5" r="3.2" fill="none" stroke="#ff0000" stroke-width="1"/>
<rect x = "5" y = "4.6" width = "6" height = "0.3" fill = "#ff0000"/>
<rect x = "5" y = "5.6" width = "6" height = "0.3" fill = "#ff0000"/>
<rect x = "5" y = "6.6" width = "6" height = "0.3" fill = "#ff0000"/>
<rect x = "6" y = "2.5" width = "0.25" height = "6" fill = "#ff0000"/>
<rect x = "7.15" y = "2.5" width = "0.3" height = "6" fill = "#ff0000"/>
<rect x = "8.3" y = "2.5" width = "0.3" height = "6" fill = "#ff0000"/>
<rect x = "9.5" y = "2.5" width = "0.3" height = "6" fill = "#ff0000"/>
<path d="m 0.5 13 L 0.2 12.5 L 0 11.5 L 0 10 L 0.3 9.5 L 1 8.7 L 2 8 L 3.8 6.7 L 4.4 7.6 L 4.8 8 L 5.5 8.7 L 6.4 9.4 L 7.2 9.7 L 6.5 10.5 L 5.5 11.5 L 4 12.5 L 3 13 L 2 13.3 L 1.2 13.3 z" fill="#ff0000"/>
</svg>