{
  "accessors": [
    {
      "bufferView": 2,
      "componentType": 5126,
      "count": 42,
      "max": [
        5.421586036682129,
        50.56871795654297,
        24.213821411132813
      ],
      "min": [
        -7.114283561706543,
        25.49696922302246,
        11.677935600280762
      ],
      "type": "VEC3"
    },
    {
      "bufferView": 2,
      "byteOffset": 504,
      "componentType": 5126,
      "count": 42,
      "max": [
        1.0,
        1.0,
        1.0
      ],
      "min": [
        -1.0,
        -1.0,
        -1.0
      ],
      "type": "VEC3"
    },
    {
      "bufferView": 1,
      "componentType": 5126,
      "count": 42,
      "max": [
        0.6547999978065491,
        0.9961000084877014
      ],
      "min": [
        0.14790000021457672,
        0.09380000084638596
      ],
      "type": "VEC2"
    },
    {
      "bufferView": 0,
      "componentType": 5125,
      "count": 132,
      "type": "SCALAR"
    },
    {
      "bufferView": 2,
      "byteOffset": 1008,
      "componentType": 5126,
      "count": 42,
      "max": [
        5.421586036682129,
        50.5687255859375,
        -13.39378833770752
      ],
      "min": [
        -7.114283561706543,
        25.496986389160156,
        -25.92967414855957
      ],
      "type": "VEC3"
    },
    {
      "bufferView": 2,
      "byteOffset": 1512,
      "componentType": 5126,
      "count": 42,
      "max": [
        1.0,
        1.0,
        1.0
      ],
      "min": [
        -1.0,
        -1.0,
        -1.0
      ],
      "type": "VEC3"
    },
    {
      "bufferView": 1,
      "byteOffset": 336,
      "componentType": 5126,
      "count": 42,
      "max": [
        0.7074999809265137,
        0.8788999915122986
      ],
      "min": [
        0.16850000619888306,
        0.23829999566078186
      ],
      "type": "VEC2"
    },
    {
      "bufferView": 0,
      "byteOffset": 528,
      "componentType": 5125,
      "count": 132,
      "type": "SCALAR"
    },
    {
      "bufferView": 2,
      "byteOffset": 2016,
      "componentType": 5126,
      "count": 42,
      "max": [
        5.421586036682129,
        25.496986389160156,
        -0.8579341769218445
      ],
      "min": [
        -7.114283561706543,
        0.4251822829246521,
        -13.393807411193848
      ],
      "type": "VEC3"
    },
    {
      "bufferView": 2,
      "byteOffset": 2520,
      "componentType": 5126,
      "count": 42,
      "max": [
        1.0,
        1.0,
        1.0
      ],
      "min": [
        -1.0,
        -1.0,
        -1.0
      ],
      "type": "VEC3"
    },
    {
      "bufferView": 1,
      "byteOffset": 672,
      "componentType": 5126,
      "count": 42,
      "max": [
        0.5580999851226807,
        0.8788999915122986
      ],
      "min": [
        0.3472000062465668,
        0.23829999566078186
      ],
      "type": "VEC2"
    },
    {
      "bufferView": 0,
      "byteOffset": 1056,
      "componentType": 5125,
      "count": 132,
      "type": "SCALAR"
    },
    {
      "bufferView": 2,
      "byteOffset": 3024,
      "componentType": 5126,
      "count": 42,
      "max": [
        5.421586036682129,
        25.496984481811523,
        11.677935600280762
      ],
      "min": [
        -7.114283561706543,
        0.42518022656440735,
        -0.8579379916191101
      ],
      "type": "VEC3"
    },
    {
      "bufferView": 2,
      "byteOffset": 3528,
      "componentType": 5126,
      "count": 42,
      "max": [
        1.0,
        1.0,
        1.0
      ],
      "min": [
        -1.0,
        -1.0,
        -1.0
      ],
      "type": "VEC3"
    },
    {
      "bufferView": 1,
      "byteOffset": 1008,
      "componentType": 5126,
      "count": 42,
      "max": [
        0.7045999765396118,
        0.9961000084877014
      ],
      "min": [
        0.39989998936653137,
        0.23829999566078186
      ],
      "type": "VEC2"
    },
    {
      "bufferView": 0,
      "byteOffset": 1584,
      "componentType": 5125,
      "count": 132,
      "type": "SCALAR"
    },
    {
      "bufferView": 2,
      "byteOffset": 4032,
      "componentType": 5126,
      "count": 517,
      "max": [
        6.661632537841797,
        64.37334442138672,
        6.649816513061523
      ],
      "min": [
        -8.354330062866211,
        49.299827575683594,
        -8.365650177001953
      ],
      "type": "VEC3"
    },
    {
      "bufferView": 2,
      "byteOffset": 10236,
      "componentType": 5126,
      "count": 517,
      "max": [
        0.9962003827095032,
        1.0,
        0.9961915612220764
      ],
      "min": [
        -0.9962003231048584,
        -1.0,
        -0.9962003827095032
      ],
      "type": "VEC3"
    },
    {
      "bufferView": 1,
      "byteOffset": 1344,
      "componentType": 5126,
      "count": 517,
      "max": [
        0.9775999784469604,
        0.9843999743461609
      ],
      "min": [
        0.8809000253677368,
        0.7656000256538391
      ],
      "type": "VEC2"
    },
    {
      "bufferView": 0,
      "byteOffset": 2112,
      "componentType": 5125,
      "count": 2538,
      "type": "SCALAR"
    },
    {
      "bufferView": 2,
      "byteOffset": 16440,
      "componentType": 5126,
      "count": 42,
      "max": [
        5.421586036682129,
        50.5687255859375,
        11.677950859069824
      ],
      "min": [
        -7.114283561706543,
        25.496971130371094,
        -13.393803596496582
      ],
      "type": "VEC3"
    },
    {
      "bufferView": 2,
      "byteOffset": 16944,
      "componentType": 5126,
      "count": 42,
      "max": [
        1.0,
        1.0,
        1.0
      ],
      "min": [
        -1.0,
        -1.0,
        -1.0
      ],
      "type": "VEC3"
    },
    {
      "bufferView": 1,
      "byteOffset": 5480,
      "componentType": 5126,
      "count": 42,
      "max": [
        0.3375999927520752,
        0.9961000084877014
      ],
      "min": [
        0.02199999988079071,
        0.2401999980211258
      ],
      "type": "VEC2"
    },
    {
      "bufferView": 0,
      "byteOffset": 12264,
      "componentType": 5125,
      "count": 132,
      "type": "SCALAR"
    }
  ],
  "asset": {
    "extras": {
      "author": "Modelsforgame (https://sketchfab.com/Modelsforgame)",
      "license": "CC-BY-4.0 (http://creativecommons.org/licenses/by/4.0/)",
      "source": "https://sketchfab.com/3d-models/roblox-noob-rig-95163fb22fb9432e8e364e79fa7fc2f6",
      "title": "roblox Noob rig"
    },
    "generator": "Sketchfab-14.1.2",
    "version": "2.0"
  },
  "bufferViews": [
    {
      "buffer": 0,
      "byteLength": 12792,
      "name": "floatBufferViews",
      "target": 34963
    },
    {
      "buffer": 0,
      "byteLength": 5816,
      "byteOffset": 12792,
      "byteStride": 8,
      "name": "floatBufferViews",
      "target": 34962
    },
    {
      "buffer": 0,
      "byteLength": 17448,
      "byteOffset": 18608,
      "byteStride": 12,
      "name": "floatBufferViews",
      "target": 34962
    }
  ],
  "buffers": [
    {
      "byteLength": 36056,
      "uri": "scene.bin"
    }
  ],
  "images": [
    {
      "uri": "textures/N00b1Mtl_baseColor.png"
    }
  ],
  "materials": [
    {
      "doubleSided": true,
      "name": "N00b1Mtl",
      "pbrMetallicRoughness": {
        "baseColorTexture": {
          "index": 0
        },
        "metallicFactor": 0.0,
        "roughnessFactor": 0.5
      }
    }
  ],
  "meshes": [
    {
      "name": "Object_0",
      "primitives": [
        {
          "attributes": {
            "NORMAL": 1,
            "POSITION": 0,
            "TEXCOORD_0": 2
          },
          "indices": 3,
          "material": 0,
          "mode": 4
        }
      ]
    },
    {
      "name": "Object_1",
      "primitives": [
        {
          "attributes": {
            "NORMAL": 5,
            "POSITION": 4,
            "TEXCOORD_0": 6
          },
          "indices": 7,
          "material": 0,
          "mode": 4
        }
      ]
    },
    {
      "name": "Object_2",
      "primitives": [
        {
          "attributes": {
            "NORMAL": 9,
            "POSITION": 8,
            "TEXCOORD_0": 10
          },
          "indices": 11,
          "material": 0,
          "mode": 4
        }
      ]
    },
    {
      "name": "Object_3",
      "primitives": [
        {
          "attributes": {
            "NORMAL": 13,
            "POSITION": 12,
            "TEXCOORD_0": 14
          },
          "indices": 15,
          "material": 0,
          "mode": 4
        }
      ]
    },
    {
      "name": "Object_4",
      "primitives": [
        {
          "attributes": {
            "NORMAL": 17,
            "POSITION": 16,
            "TEXCOORD_0": 18
          },
          "indices": 19,
          "material": 0,
          "mode": 4
        }
      ]
    },
    {
      "name": "Object_5",
      "primitives": [
        {
          "attributes": {
            "NORMAL": 21,
            "POSITION": 20,
            "TEXCOORD_0": 22
          },
          "indices": 23,
          "material": 0,
          "mode": 4
        }
      ]
    }
  ],
  "nodes": [
    {
      "children": [
        1
      ],
      "matrix": [
        1.0,
        0.0,
        0.0,
        0.0,
        0.0,
        2.220446049250313e-16,
        -1.0,
        0.0,
        0.0,
        1.0,
        2.220446049250313e-16,
        0.0,
        0.0,
        0.0,
        0.0,
        1.0
      ],
      "name": "Sketchfab_model"
    },
    {
      "children": [
        2
      ],
      "name": "root"
    },
    {
      "children": [
        3
      ],
      "matrix": [
        1.0,
        0.0,
        0.0,
        0.0,
        0.0,
        2.220446049250313e-16,
        1.0,
        0.0,
        0.0,
        -1.0,
        2.220446049250313e-16,
        0.0,
        0.0,
        0.0,
        0.0,
        1.0
      ],
      "name": "GLTF_SceneRootNode"
    },
    {
      "children": [
        4
      ],
      "matrix": [
        1.0,
        0.0,
        0.0,
        0.0,
        0.0,
        1.0,
        0.0,
        0.0,
        0.0,
        0.0,
        1.0,
        0.0,
        0.0,
        0.9952068328857422,
        -1.1373779773712158,
        1.0
      ],
      "name": "Armature_12"
    },
    {
      "children": [
        5,
        8,
        11,
        14,
        17,
        20
      ],
      "matrix": [
        1.0,
        0.0,
        0.0,
        0.0,
        0.0,
        1.0,
        0.0,
        0.0,
        0.0,
        0.0,
        1.0,
        0.0,
        -0.691115140914917,
        25.97549819946289,
        0.0,
        1.0
      ],
      "name": "Bone_11"
    },
    {
      "children": [
        6
      ],
      "matrix": [
        0.9999999999999716,
        4.834276002846774e-10,
        2.3841807478107747e-07,
        0.0,
        4.216283196246758e-17,
        -0.9999979443313167,
        0.002027642261597672,
        0.0,
        2.3841856489074037e-07,
        -0.0020276422615976147,
        -0.9999979443312883,
        0.0,
        -0.07828444242477417,
        21.914546966552734,
        12.436485290527344,
        1.0
      ],
      "name": "Bone.001_1"
    },
    {
      "children": [
        7
      ],
      "matrix": [
        0.9999999999999716,
        1.4407271649679996e-17,
        2.3841856489071223e-07,
        0.0,
        4.834275725291171e-10,
        -0.9999979443313167,
        -0.0020276422615976147,
        0.0,
        2.384180747811056e-07,
        0.002027642261597672,
        -0.9999979443312883,
        0.0,
        0.7693971395492554,
        48.862247467041016,
        11.398207664489746,
        1.0
      ],
      "name": "N00b6_0"
    },
    {
      "mesh": 0,
      "name": "Object_7"
    },
    {
      "children": [
        9
      ],
      "matrix": [
        0.9999999999999716,
        4.833988455841454e-10,
        2.3841807483938013e-07,
        0.0,
        4.216197500335297e-17,
        -0.9999979445758556,
        0.002027521655638617,
        0.0,
        2.3841856489074037e-07,
        -0.00202752165563856,
        -0.9999979445758271,
        0.0,
        -0.07828444242477417,
        22.112010955810547,
        -12.434823989868164,
        1.0
      ],
      "name": "Bone.002_3"
    },
    {
      "children": [
        10
      ],
      "matrix": [
        0.9999999999999716,
        1.440641469056539e-17,
        2.3841856489071223e-07,
        0.0,
        4.83398817828585e-10,
        -0.9999979445758556,
        -0.00202752165563856,
        0.0,
        2.3841807483940826e-07,
        0.002027521655638617,
        -0.9999979445758271,
        0.0,
        0.7694029808044434,
        49.110130310058594,
        -13.47265911102295,
        1.0
      ],
      "name": "N00b4_2"
    },
    {
      "mesh": 1,
      "name": "Object_10"
    },
    {
      "children": [
        12
      ],
      "matrix": [
        0.0,
        0.0,
        -1.0,
        0.0,
        0.0,
        -0.9999999403953552,
        0.0,
        0.0,
        -1.0,
        -0.0,
        0.0,
        0.0,
        -0.42391419410705566,
        -1.502462387084961,
        -5.87162971496582,
        1.0
      ],
      "name": "Bone.003_5"
    },
    {
      "children": [
        13
      ],
      "matrix": [
        0.0,
        0.0,
        -1.0,
        0.0,
        0.0,
        -1.0,
        0.0,
        0.0,
        -1.0,
        0.0,
        0.0,
        0.0,
        -7.009008407592773,
        25.468246459960938,
        -1.1150296926498413,
        1.0
      ],
      "name": "N00b3_4"
    },
    {
      "mesh": 2,
      "name": "Object_13"
    },
    {
      "children": [
        15
      ],
      "matrix": [
        0.0,
        0.0,
        -1.0,
        0.0,
        0.0,
        -0.9999999403953552,
        0.0,
        0.0,
        -1.0,
        -0.0,
        0.0,
        0.0,
        -0.42391419410705566,
        -1.502462387084961,
        6.3633527755737305,
        1.0
      ],
      "name": "Bone.004_7"
    },
    {
      "children": [
        16
      ],
      "matrix": [
        0.0,
        0.0,
        -1.0,
        0.0,
        0.0,
        -1.0,
        0.0,
        0.0,
        -1.0,
        0.0,
        0.0,
        0.0,
        5.225975036621094,
        25.468246459960938,
        -1.1150290966033936,
        1.0
      ],
      "name": "N00b5_6"
    },
    {
      "mesh": 3,
      "name": "Object_16"
    },
    {
      "children": [
        18
      ],
      "matrix": [
        0.9999999999999716,
        0.0,
        -2.384185791015591e-07,
        0.0,
        0.0,
        1.0,
        0.0,
        0.0,
        2.384185791015591e-07,
        0.0,
        0.9999999999999716,
        0.0,
        0.0,
        22.277507781982422,
        0.0,
        1.0
      ],
      "name": "Bone.005_9"
    },
    {
      "children": [
        19
      ],
      "matrix": [
        0.9999999999999716,
        0.0,
        2.384185791015591e-07,
        0.0,
        0.0,
        1.0,
        0.0,
        0.0,
        -2.384185791015591e-07,
        -0.0,
        0.9999999999999716,
        0.0,
        0.6911148428916931,
        -49.24821090698242,
        1.1373780965805054,
        1.0
      ],
      "name": "N00b7_8"
    },
    {
      "mesh": 4,
      "name": "Object_19"
    },
    {
      "children": [
        21
      ],
      "matrix": [
        1.0,
        0.0,
        0.0,
        0.0,
        0.0,
        1.0,
        0.0,
        0.0,
        0.0,
        0.0,
        1.0,
        0.0,
        0.691115140914917,
        -26.970706939697266,
        1.1373779773712158,
        1.0
      ],
      "name": "N00b1_10"
    },
    {
      "mesh": 5,
      "name": "Object_21"
    }
  ],
  "samplers": [
    {
      "magFilter": 9729,
      "minFilter": 9987,
      "wrapS": 10497,
      "wrapT": 10497
    }
  ],
  "scene": 0,
  "scenes": [
    {
      "name": "Sketchfab_Scene",
      "nodes": [
        0
      ]
    }
  ],
  "textures": [
    {
      "sampler": 0,
      "source": 0
    }
  ]
}
